HIERARCHY
ROOT Hips
{
	OFFSET 0.000000 88.474243 0.000000
	CHANNELS 6 Xposition Yposition Zposition Zrotation Yrotation Xrotation 
	JOINT Hips_Spine
	{
		OFFSET 0.000000 0.000000 0.000000
		CHANNELS 3 Zrotation Yrotation Xrotation
		JOINT Spine
		{
			OFFSET 0.005100 8.711998 -0.691000
			CHANNELS 3 Zrotation Yrotation Xrotation
			JOINT Spine1
			{
				OFFSET -0.009200 8.660301 -1.275000
				CHANNELS 3 Zrotation Yrotation Xrotation
				JOINT Spine2
				{
					OFFSET 0.006300 9.852501 -1.857000
					CHANNELS 3 Zrotation Yrotation Xrotation
					JOINT Spine2_Neck
					{
						OFFSET 0.000000 0.000000 0.000000
						CHANNELS 3 Zrotation Yrotation Xrotation
						JOINT Neck
						{
							OFFSET 0.016300 11.420799 -0.263300
							CHANNELS 3 Zrotation Yrotation Xrotation
							End Site #name: Head
							{
								OFFSET -0.019200 9.262405 2.362500
							}
						}
					}
					JOINT Spine2_LeftShoulder
					{
						OFFSET 0.000000 0.000000 0.000000
						CHANNELS 3 Zrotation Yrotation Xrotation
						JOINT LeftShoulder
						{
							OFFSET 5.616900 6.732201 -0.345700
							CHANNELS 3 Zrotation Yrotation Xrotation
							JOINT LeftArm
							{
								OFFSET 10.664888 -0.183372 -2.440700
								CHANNELS 3 Zrotation Yrotation Xrotation
								JOINT LeftForeArm
								{
									OFFSET 27.459126 0.000000 0.000000
									CHANNELS 3 Zrotation Yrotation Xrotation
									End Site #name: LeftHand
									{
										OFFSET 21.306858 0.000000 0.000000
									}
								}
							}
						}
					}
					JOINT Spine2_RightShoulder
					{
						OFFSET 0.000000 0.000000 0.000000
						CHANNELS 3 Zrotation Yrotation Xrotation
						JOINT RightShoulder
						{
							OFFSET -5.580300 6.737503 -0.344400
							CHANNELS 3 Zrotation Yrotation Xrotation
							JOINT RightArm
							{
								OFFSET -10.679335 -0.188484 -2.383900
								CHANNELS 3 Zrotation Yrotation Xrotation
								JOINT RightForeArm
								{
									OFFSET -27.503529 0.000000 0.000000
									CHANNELS 3 Zrotation Yrotation Xrotation
									End Site #name: RightHand
									{
										OFFSET -21.306808 0.000000 0.000000
									}
								}
							}
						}
					}
				}
			}
		}
	}
	JOINT Hips_LeftUpLeg
	{
		OFFSET 0.000000 0.000000 0.000000
		CHANNELS 3 Zrotation Yrotation Xrotation
		JOINT LeftUpLeg
		{
			OFFSET 6.857700 -6.739601 0.312100
			CHANNELS 3 Zrotation Yrotation Xrotation
			JOINT LeftLeg
			{
				OFFSET -0.367590 -34.731552 -4.572400
				CHANNELS 3 Zrotation Yrotation Xrotation
				End Site #name: LeftFoot
				{
					OFFSET 0.367590 -34.656704 -6.067400
				}
			}
		}
	}
	JOINT Hips_RightUpLeg
	{
		OFFSET 0.000000 0.000000 0.000000
		CHANNELS 3 Zrotation Yrotation Xrotation
		JOINT RightUpLeg
		{
			OFFSET -6.876100 -6.733299 0.301000
			CHANNELS 3 Zrotation Yrotation Xrotation
			JOINT RightLeg
			{
				OFFSET 0.347353 -34.795158 -4.515900
				CHANNELS 3 Zrotation Yrotation Xrotation
				End Site #name: RightFoot
				{
					OFFSET -0.347353 -34.589367 -6.070300
				}
			}
		}
	}
}
MOTION
Frames: 15
Frame Time: 0.041667
-0.185681 0.036769 -1.194361 -2.615750 1.073351 -3.636864 0.000000 -0.000000 0.000000 0.961244 1.730812 17.915914 0.083205 0.396304 3.988175 0.000000 0.000000 0.000000 0.414707 0.235697 3.316702 1.113315 -0.359794 8.996691 0.418533 0.341995 3.651966 -5.376856 3.499250 -1.144788 -63.758362 -0.656304 3.571465 0.032691 -41.206006 0.921447 0.099057 0.560785 4.089447 8.943069 -4.474306 0.313963 67.209707 11.499706 10.224397 0.429763 77.164959 0.537941 0.000000 -0.000000 -0.000000 6.695931 10.555049 -41.411893 4.398373 -4.524914 46.471343 0.000000 0.000000 0.000000 -5.330006 -6.161648 -36.900823 1.135032 -1.104917 50.098814 
-0.191445 0.035950 -1.227077 -2.601388 1.062968 -3.637981 0.000000 -0.000000 0.000000 0.967246 1.731831 17.906644 0.084875 0.396991 3.988545 0.000000 0.000000 0.000000 0.417650 0.235606 3.318195 1.118358 -0.358342 8.981908 0.422370 0.341673 3.651447 -5.370372 3.469377 -1.140454 -63.741351 -0.692565 3.471047 0.035911 -40.857890 0.917581 0.102918 0.560598 4.091582 8.966880 -4.459770 0.314981 67.249122 11.551162 10.359079 0.402359 76.592346 0.508919 0.000000 -0.000000 -0.000000 6.696337 10.555444 -41.406797 4.403328 -4.524703 46.461380 0.000000 -0.000000 0.000000 -5.328337 -6.163092 -36.892770 1.132685 -1.107935 50.097813 
-0.196550 0.034513 -1.259520 -2.589348 1.053752 -3.638992 0.000000 -0.000000 0.000000 0.974734 1.730267 17.889702 0.087377 0.397056 3.986000 0.000000 0.000000 0.000000 0.421844 0.235964 3.319807 1.122002 -0.355610 8.964729 0.427254 0.341424 3.651750 -5.369795 3.426525 -1.134040 -63.715562 -0.725019 3.363077 0.041198 -40.418745 0.910451 0.107736 0.560531 4.091802 8.996430 -4.443446 0.316031 67.293827 11.622117 10.519421 0.370835 75.906513 0.475228 0.000000 -0.000000 -0.000000 6.696111 10.558440 -41.403737 4.407943 -4.525451 46.455142 0.000000 -0.000000 0.000000 -5.327344 -6.164266 -36.882442 1.132339 -1.111223 50.092316 
-0.200936 0.032538 -1.291744 -2.579046 1.044252 -3.638654 0.000000 -0.000000 0.000000 0.982238 1.730336 17.864539 0.090145 0.397390 3.982398 0.000000 0.000000 0.000000 0.426344 0.236461 3.320247 1.126522 -0.351648 8.945094 0.432392 0.341818 3.649386 -5.373674 3.379074 -1.125311 -63.698174 -0.767480 3.251984 0.046820 -39.917456 0.902773 0.113347 0.560235 4.090147 9.029720 -4.419618 0.317445 67.340875 11.704965 10.713794 0.339083 75.068600 0.440432 0.000000 -0.000000 -0.000000 6.697753 10.562455 -41.402441 4.413048 -4.523272 46.449818 0.000000 -0.000000 0.000000 -5.325403 -6.167236 -36.876527 1.132503 -1.112810 50.090693 
-0.204534 0.030128 -1.323780 -2.570407 1.035196 -3.636507 0.000000 -0.000000 0.000000 0.990685 1.729921 17.833414 0.093581 0.397866 3.977733 0.000000 0.000000 0.000000 0.432012 0.237599 3.320480 1.131215 -0.345026 8.918472 0.439397 0.341928 3.645863 -5.381076 3.327184 -1.114260 -63.671658 -0.815326 3.130845 0.052156 -39.321938 0.894271 0.120296 0.560463 4.089047 9.070100 -4.386449 0.320067 67.393012 11.798707 10.930285 0.304963 74.099077 0.403551 0.000000 -0.000000 -0.000000 6.698826 10.564558 -41.401108 4.420484 -4.521323 46.441170 0.000000 -0.000000 0.000000 -5.322237 -6.165972 -36.868071 1.132321 -1.114500 50.082783 
-0.207351 0.027331 -1.355768 -2.564052 1.027313 -3.634467 0.000000 -0.000000 0.000000 0.997629 1.728389 17.800060 0.097346 0.398211 3.972154 0.000000 0.000000 0.000000 0.437447 0.238863 3.320211 1.136188 -0.337901 8.889230 0.446504 0.342591 3.643637 -5.399173 3.257495 -1.101864 -63.648236 -0.869688 3.011716 0.058702 -38.665290 0.886928 0.127260 0.560160 4.087591 9.111710 -4.347422 0.324208 67.460709 11.895233 11.189587 0.272979 72.975170 0.367536 0.000000 -0.000000 -0.000000 6.700611 10.568479 -41.401004 4.425905 -4.518277 46.434212 0.000000 -0.000000 0.000000 -5.320744 -6.164896 -36.855572 1.132095 -1.116108 50.071901 
-0.209284 0.024240 -1.387596 -2.558960 1.021781 -3.631461 0.000000 -0.000000 0.000000 1.003417 1.729796 17.758792 0.101376 0.399053 3.963911 0.000000 0.000000 0.000000 0.443339 0.240562 3.318909 1.139405 -0.330218 8.855225 0.453542 0.343426 3.638479 -5.418096 3.182102 -1.086460 -63.621668 -0.913583 2.893026 0.064565 -37.931505 0.878842 0.134741 0.560145 4.085373 9.154988 -4.301101 0.328085 67.533630 11.994849 11.453561 0.241521 71.719108 0.331739 0.000000 -0.000000 -0.000000 6.701307 10.573270 -41.399177 4.434829 -4.513189 46.424697 0.000000 -0.000000 0.000000 -5.318624 -6.162281 -36.844825 1.130300 -1.119695 50.059210 
-0.210335 0.020895 -1.419363 -2.554334 1.015023 -3.627764 0.000000 -0.000000 0.000000 1.012125 1.730991 17.715718 0.105918 0.399630 3.954143 0.000000 0.000000 0.000000 0.450104 0.242691 3.316916 1.142775 -0.321088 8.815759 0.461066 0.344705 3.631818 -5.443300 3.100210 -1.070324 -63.597828 -0.966039 2.765944 0.071815 -37.141593 0.868311 0.142868 0.560210 4.080910 9.204974 -4.255210 0.332847 67.614227 12.101857 11.761697 0.210157 70.330246 0.295475 0.000000 -0.000000 -0.000000 6.702473 10.578301 -41.398608 4.444141 -4.507649 46.414450 0.000000 -0.000000 0.000000 -5.317648 -6.158760 -36.836260 1.130197 -1.120757 50.047248 
-0.210480 0.017321 -1.451096 -2.549959 1.009263 -3.622856 0.000000 -0.000000 0.000000 1.018684 1.731435 17.664745 0.110582 0.400699 3.944559 0.000000 0.000000 0.000000 0.456838 0.245299 3.314988 1.146433 -0.311473 8.772207 0.469204 0.346035 3.624972 -5.463516 3.021830 -1.052872 -63.573714 -1.025978 2.642200 0.075964 -36.465857 0.862887 0.151465 0.560474 4.076924 9.264308 -4.206783 0.337258 67.695542 12.229771 12.101354 0.185644 68.846839 0.265760 0.000000 -0.000000 -0.000000 6.701113 10.582459 -41.400350 4.454874 -4.500623 46.406425 0.000000 -0.000000 0.000000 -5.318081 -6.154808 -36.820993 1.130327 -1.123569 50.029399 
-0.209712 0.013712 -1.482902 -2.547281 1.002533 -3.619178 0.000000 -0.000000 0.000000 1.026299 1.730577 17.611413 0.115836 0.401734 3.934979 0.000000 0.000000 0.000000 0.464369 0.248503 3.313623 1.148495 -0.300745 8.728862 0.477778 0.348217 3.618963 -5.500551 2.933280 -1.034370 -63.547475 -1.090305 2.540502 0.077473 -36.003722 0.860369 0.161124 0.561191 4.073466 9.328185 -4.153137 0.341777 67.793266 12.378848 12.468827 0.163811 67.208761 0.236911 0.000000 -0.000000 -0.000000 6.700041 10.589269 -41.403618 4.467382 -4.492461 46.400451 0.000000 -0.000000 0.000000 -5.318695 -6.153152 -36.807905 1.127452 -1.126703 50.010194 
-0.208036 0.010122 -1.514788 -2.545265 0.998443 -3.614460 0.000000 -0.000000 0.000000 1.033268 1.731796 17.552102 0.121880 0.403030 3.925844 0.000000 0.000000 0.000000 0.472744 0.252080 3.312004 1.151515 -0.288609 8.684131 0.488325 0.351164 3.613675 -5.531303 2.852606 -1.016023 -63.519884 -1.159402 2.410044 0.078955 -35.549773 0.858143 0.172392 0.562069 4.070645 9.393693 -4.092738 0.347758 67.910709 12.541483 12.855621 0.141771 65.089079 0.206025 0.000000 -0.000000 -0.000000 6.698391 10.591557 -41.407062 4.475770 -4.484908 46.392065 0.000000 -0.000000 0.000000 -5.321048 -6.150978 -36.806886 1.128520 -1.127806 50.001859 
-0.205494 0.006679 -1.546866 -2.544084 0.995036 -3.606742 0.000000 -0.000000 0.000000 1.042792 1.731602 17.491973 0.128060 0.404134 3.914607 0.000000 0.000000 0.000000 0.481778 0.256198 3.309747 1.156318 -0.275590 8.639607 0.498813 0.354801 3.606793 -5.565649 2.775303 -0.998818 -63.497131 -1.215916 2.271925 0.081314 -35.089739 0.856222 0.183386 0.563799 4.066437 9.455589 -4.038121 0.351963 68.009852 12.738163 13.337194 0.123224 62.882289 0.178090 0.000000 -0.000000 -0.000000 6.695940 10.595869 -41.411925 4.486202 -4.474720 46.387707 0.000000 -0.000000 0.000000 -5.323245 -6.149321 -36.807994 1.128722 -1.129189 49.993139 
-0.202066 0.003385 -1.579211 -2.545256 0.993613 -3.598559 0.000000 -0.000000 0.000000 1.051890 1.730835 17.427183 0.134381 0.405388 3.904090 0.000000 0.000000 0.000000 0.490440 0.260869 3.306792 1.163052 -0.261241 8.594052 0.510029 0.359808 3.599494 -5.596550 2.698604 -0.981678 -63.477139 -1.276057 2.152018 0.082836 -34.650400 0.856642 0.194527 0.565420 4.059322 9.512348 -3.982869 0.356522 68.080631 12.967677 13.957082 0.110412 60.587461 0.155133 0.000000 -0.000000 -0.000000 6.692178 10.602528 -41.419351 4.497964 -4.462772 46.377337 0.000000 -0.000000 0.000000 -5.325309 -6.146623 -36.804930 1.128741 -1.131493 49.977836 
-0.197625 0.000307 -1.611840 -2.547680 0.991579 -3.589065 0.000000 -0.000000 0.000000 1.059762 1.732057 17.351045 0.141537 0.405572 3.891213 0.000000 0.000000 0.000000 0.499373 0.265659 3.301412 1.169059 -0.246054 8.549683 0.520751 0.365050 3.589371 -5.636261 2.623839 -0.964730 -63.471443 -1.349066 2.051974 0.083728 -34.403016 0.854738 0.206181 0.566602 4.050983 9.571147 -3.924666 0.360660 68.167798 13.195636 14.552598 0.101866 58.298003 0.134818 0.000000 -0.000000 -0.000000 6.688757 10.608403 -41.424683 4.509849 -4.450548 46.367412 0.000000 -0.000000 0.000000 -5.325764 -6.143333 -36.802022 1.126400 -1.134534 49.958661 
-0.192056 -0.002351 -1.644795 -2.549773 0.992057 -3.579072 0.000000 -0.000000 0.000000 1.072261 1.731107 17.269521 0.149674 0.404188 3.876095 0.000000 0.000000 0.000000 0.507728 0.271228 3.293858 1.174367 -0.231410 8.508688 0.530766 0.370660 3.574179 -5.671434 2.552130 -0.948308 -63.454010 -1.412721 1.976052 0.084681 -34.184403 0.854577 0.216617 0.568666 4.036542 9.615243 -3.861425 0.366053 68.263541 13.403635 15.126315 0.097569 55.987123 0.116674 0.000000 -0.000000 -0.000000 6.684395 10.614571 -41.434212 4.521448 -4.436481 46.364532 0.000000 -0.000000 0.000000 -5.328511 -6.139387 -36.801129 1.128313 -1.135503 49.943628 
